<svg width="24" height="24" viewBox="0 0 24 24" fill="none" xmlns="http://www.w3.org/2000/svg">
    <g clip-path="url(#clip0_10_1182)">
        <path d="M21.075 14.175L9.82502 2.925C7.95002 0.975001 4.87502 0.975001 2.92502 2.85C0.975024 4.725 0.975024 7.875 2.92502 9.75L3.00002 9.825L5.10002 12L6.15002 10.95L3.97502 8.775C2.70002 7.5 2.70002 5.325 3.97502 4.05C5.25002 2.775 7.42502 2.7 8.70002 3.975C8.70002 3.975 8.70002 3.975 8.77502 4.05L19.95 15.225C21.3 16.5 21.3 18.675 20.025 19.95C18.75 21.3 16.575 21.3 15.3 20.025C15.3 20.025 15.3 20.025 15.225 19.95L9.67502 14.4C8.92502 13.65 9.00002 12.45 9.67502 11.775C10.425 11.1 11.55 11.1 12.3 11.775L15.375 14.85L16.425 13.8L13.275 10.65C11.925 9.375 9.82502 9.45 8.55002 10.8C7.35002 12.075 7.35002 14.1 8.55002 15.45L14.175 21.075C16.05 23.025 19.125 23.025 21.075 21.15C23.025 19.275 23.025 16.125 21.075 14.175C21.075 14.25 21.075 14.175 21.075 14.175Z" fill="white"/>
    </g>
    <defs>
        <clipPath id="clip0_10_1182">
            <rect width="24" height="24" fill="white"/>
        </clipPath>
    </defs>
</svg>
