<svg width="24" height="24" viewBox="0 0 24 24" fill="none" xmlns="http://www.w3.org/2000/svg">
    <g clip-path="url(#clip0_2_935)">
        <path d="M19.5 3H16.5V1.5H15V3H9V1.5H7.5V3H4.5C3.675 3 3 3.675 3 4.5V19.5C3 20.325 3.675 21 4.5 21H19.5C20.325 21 21 20.325 21 19.5V4.5C21 3.675 20.325 3 19.5 3ZM19.5 19.5H4.5V9H19.5V19.5ZM19.5 7.5H4.5V4.5H7.5V6H9V4.5H15V6H16.5V4.5H19.5V7.5Z" fill="white"/>
    </g>
    <defs>
        <clipPath id="clip0_2_935">
            <rect width="24" height="24" fill="white"/>
        </clipPath>
    </defs>
</svg>
