<svg width="24" height="24" viewBox="0 0 24 24" fill="none" xmlns="http://www.w3.org/2000/svg">
    <g clip-path="url(#clip0_2_867)">
        <path d="M12 14.75C11.1337 14.7507 10.2807 14.5368 9.5173 14.1273C8.75389 13.7178 8.10383 13.1256 7.62524 12.4035L8.87474 11.5729C9.21688 12.0886 9.6813 12.5116 10.2266 12.8042C10.7719 13.0968 11.3811 13.25 12 13.25C12.6188 13.25 13.2281 13.0968 13.7734 12.8042C14.3187 12.5116 14.7831 12.0886 15.1252 11.5729L16.3747 12.4035C15.8962 13.1256 15.2461 13.7178 14.4827 14.1273C13.7193 14.5368 12.8663 14.7507 12 14.75Z" fill="white"/>
        <path d="M15 6.5C14.7033 6.5 14.4133 6.58797 14.1666 6.75279C13.92 6.91761 13.7277 7.15188 13.6142 7.42597C13.5006 7.70006 13.4709 8.00166 13.5288 8.29263C13.5867 8.5836 13.7296 8.85088 13.9393 9.06066C14.1491 9.27043 14.4164 9.4133 14.7074 9.47117C14.9983 9.52905 15.2999 9.49935 15.574 9.38582C15.8481 9.27228 16.0824 9.08002 16.2472 8.83335C16.412 8.58668 16.5 8.29667 16.5 8C16.5019 7.80247 16.4645 7.60654 16.3898 7.42368C16.3151 7.24081 16.2047 7.07468 16.065 6.935C15.9253 6.79533 15.7592 6.68491 15.5763 6.61022C15.3935 6.53552 15.1975 6.49805 15 6.5Z" fill="white"/>
        <path d="M9 6.5C8.70333 6.5 8.41332 6.58797 8.16665 6.75279C7.91997 6.91761 7.72771 7.15188 7.61418 7.42597C7.50065 7.70006 7.47094 8.00166 7.52882 8.29263C7.5867 8.5836 7.72956 8.85088 7.93934 9.06066C8.14912 9.27043 8.41639 9.4133 8.70737 9.47117C8.99834 9.52905 9.29994 9.49935 9.57403 9.38582C9.84811 9.27228 10.0824 9.08002 10.2472 8.83335C10.412 8.58668 10.5 8.29667 10.5 8C10.5019 7.80247 10.4645 7.60654 10.3898 7.42368C10.3151 7.24081 10.2047 7.07468 10.065 6.935C9.92532 6.79533 9.75918 6.68491 9.57632 6.61022C9.39345 6.53552 9.19752 6.49805 9 6.5Z" fill="white"/>
        <path d="M13.3018 23L12 22.25L15 17H19.5C19.6971 17.0003 19.8923 16.9618 20.0744 16.8865C20.2566 16.8112 20.4221 16.7008 20.5614 16.5614C20.7008 16.4221 20.8112 16.2566 20.8865 16.0744C20.9618 15.8923 21.0003 15.6971 21 15.5V5C21.0003 4.80292 20.9618 4.60772 20.8865 4.42558C20.8112 4.24344 20.7008 4.07795 20.5614 3.93859C20.4221 3.79924 20.2566 3.68876 20.0744 3.6135C19.8923 3.53823 19.6971 3.49966 19.5 3.5H4.5C4.30292 3.49966 4.10772 3.53823 3.92558 3.6135C3.74344 3.68876 3.57795 3.79924 3.43859 3.93859C3.29924 4.07795 3.18876 4.24344 3.1135 4.42558C3.03823 4.60772 2.99966 4.80292 3 5V15.5C2.99966 15.6971 3.03823 15.8923 3.1135 16.0744C3.18876 16.2566 3.29924 16.4221 3.43859 16.5614C3.57795 16.7008 3.74344 16.8112 3.92558 16.8865C4.10772 16.9618 4.30292 17.0003 4.5 17H11.25V18.5H4.5C4.10601 18.5001 3.71588 18.4225 3.35187 18.2718C2.98786 18.121 2.65712 17.9001 2.37853 17.6215C2.09994 17.3429 1.87896 17.0121 1.72822 16.6481C1.57748 16.2841 1.49993 15.894 1.5 15.5V5C1.49988 4.606 1.5774 4.21584 1.72812 3.85181C1.87884 3.48778 2.09982 3.15702 2.37842 2.87842C2.65702 2.59982 2.98778 2.37884 3.35181 2.22812C3.71584 2.0774 4.106 1.99988 4.5 2H19.5C19.894 1.99988 20.2842 2.0774 20.6482 2.22812C21.0122 2.37884 21.343 2.59982 21.6216 2.87842C21.9002 3.15702 22.1212 3.48778 22.2719 3.85181C22.4226 4.21584 22.5001 4.606 22.5 5V15.5C22.5001 15.894 22.4225 16.2841 22.2718 16.6481C22.121 17.0121 21.9001 17.3429 21.6215 17.6215C21.3429 17.9001 21.0121 18.121 20.6481 18.2718C20.2841 18.4225 19.894 18.5001 19.5 18.5H15.8735L13.3018 23Z" fill="white"/>
    </g>
    <defs>
        <clipPath id="clip0_2_867">
            <rect width="24" height="24" fill="white"/>
        </clipPath>
    </defs>
</svg>
