<svg width="24" height="24" viewBox="0 0 24 24" fill="none" xmlns="http://www.w3.org/2000/svg">
    <g clip-path="url(#clip0_2_954)">
        <path d="M22.5 21H1.5V22.5H22.5V21Z" fill="white"/>
        <path d="M18.375 8.25H6C5.6023 8.2504 5.221 8.40856 4.93978 8.68978C4.65856 8.971 4.5004 9.3523 4.5 9.75V15.75C4.50117 16.7442 4.89664 17.6973 5.59964 18.4004C6.30265 19.1034 7.2558 19.4988 8.25 19.5H14.25C15.2442 19.4988 16.1973 19.1034 16.9004 18.4004C17.6034 17.6973 17.9988 16.7442 18 15.75V15H18.375C19.2701 15 20.1285 14.6444 20.7615 14.0115C21.3944 13.3786 21.75 12.5201 21.75 11.625C21.75 10.7299 21.3944 9.87145 20.7615 9.23851C20.1285 8.60558 19.2701 8.25 18.375 8.25ZM16.5 15.75C16.4993 16.3465 16.2621 16.9185 15.8403 17.3403C15.4185 17.7621 14.8465 17.9993 14.25 18H8.25C7.65346 17.9993 7.08155 17.7621 6.65973 17.3403C6.23792 16.9185 6.00066 16.3465 6 15.75V9.75H16.5V15.75ZM18.375 13.5H18V9.75H18.375C18.8723 9.75 19.3492 9.94754 19.7008 10.2992C20.0525 10.6508 20.25 11.1277 20.25 11.625C20.25 12.1223 20.0525 12.5992 19.7008 12.9508C19.3492 13.3025 18.8723 13.5 18.375 13.5Z" fill="white"/>
        <path d="M14.25 6.75H12.75V6.6405C12.751 6.36176 12.6738 6.08832 12.5273 5.85121C12.3807 5.6141 12.1707 5.42281 11.9209 5.29905L9.90819 4.2927C9.40875 4.04499 8.98869 3.66233 8.69562 3.18809C8.40254 2.71385 8.24818 2.16699 8.25002 1.6095V0.75H9.75002V1.6095C9.74911 1.88823 9.8263 2.16163 9.97285 2.39873C10.1194 2.63582 10.3294 2.82713 10.5791 2.95095L12.5918 3.9573C13.0913 4.20504 13.5113 4.5877 13.8044 5.06194C14.0974 5.53617 14.2518 6.08302 14.25 6.6405V6.75Z" fill="white"/>
    </g>
    <defs>
        <clipPath id="clip0_2_954">
            <rect width="24" height="24" fill="white"/>
        </clipPath>
    </defs>
</svg>
