<svg width="24" height="24" viewBox="0 0 24 24" fill="none" xmlns="http://www.w3.org/2000/svg">
    <g clip-path="url(#clip0_2_905)">
        <path d="M7.5 10.5C8.32843 10.5 9 9.82843 9 9C9 8.17157 8.32843 7.5 7.5 7.5C6.67157 7.5 6 8.17157 6 9C6 9.82843 6.67157 10.5 7.5 10.5Z" fill="white"/>
        <path d="M12 8.25C12.8284 8.25 13.5 7.57843 13.5 6.75C13.5 5.92157 12.8284 5.25 12 5.25C11.1716 5.25 10.5 5.92157 10.5 6.75C10.5 7.57843 11.1716 8.25 12 8.25Z" fill="white"/>
        <path d="M16.5 10.5C17.3284 10.5 18 9.82843 18 9C18 8.17157 17.3284 7.5 16.5 7.5C15.6716 7.5 15 8.17157 15 9C15 9.82843 15.6716 10.5 16.5 10.5Z" fill="white"/>
        <path d="M17.25 15C18.0784 15 18.75 14.3284 18.75 13.5C18.75 12.6716 18.0784 12 17.25 12C16.4216 12 15.75 12.6716 15.75 13.5C15.75 14.3284 16.4216 15 17.25 15Z" fill="white"/>
        <path d="M14.25 18.75C15.0784 18.75 15.75 18.0784 15.75 17.25C15.75 16.4216 15.0784 15.75 14.25 15.75C13.4216 15.75 12.75 16.4216 12.75 17.25C12.75 18.0784 13.4216 18.75 14.25 18.75Z" fill="white"/>
        <path d="M12.405 1.5C10.9924 1.44548 9.58338 1.67675 8.26234 2.17996C6.9413 2.68316 5.73548 3.44794 4.71716 4.42844C3.69884 5.40894 2.889 6.58497 2.33618 7.88603C1.78336 9.18708 1.49895 10.5864 1.5 12C1.49997 12.556 1.62818 13.1045 1.87466 13.6029C2.12115 14.1012 2.47927 14.536 2.92117 14.8735C3.36308 15.2109 3.87685 15.4418 4.42255 15.5483C4.96825 15.6548 5.53116 15.634 6.0675 15.4875L6.9075 15.255C7.24166 15.1638 7.59237 15.151 7.9323 15.2175C8.27223 15.2841 8.5922 15.4282 8.8673 15.6387C9.14239 15.8492 9.36516 16.1203 9.51827 16.431C9.67138 16.7418 9.75068 17.0836 9.75 17.43V20.25C9.75 20.8467 9.98706 21.419 10.409 21.841C10.831 22.2629 11.4033 22.5 12 22.5C13.4136 22.5011 14.8129 22.2166 16.114 21.6638C17.415 21.111 18.5911 20.3012 19.5716 19.2828C20.5521 18.2645 21.3168 17.0587 21.82 15.7377C22.3233 14.4166 22.5545 13.0076 22.5 11.595C22.3912 8.95251 21.2927 6.44755 19.4226 4.57744C17.5525 2.70733 15.0475 1.60882 12.405 1.5ZM18.4875 18.2325C17.6501 19.1093 16.6432 19.8067 15.528 20.2825C14.4127 20.7582 13.2125 21.0023 12 21C11.8011 21 11.6103 20.921 11.4697 20.7803C11.329 20.6397 11.25 20.4489 11.25 20.25V17.43C11.25 16.4354 10.8549 15.4816 10.1517 14.7783C9.44839 14.0751 8.49456 13.68 7.5 13.68C7.16299 13.6806 6.82755 13.726 6.5025 13.815L5.6625 14.0475C5.34876 14.1316 5.01987 14.1423 4.70133 14.0787C4.38279 14.0152 4.08317 13.8792 3.82569 13.6812C3.56821 13.4832 3.35979 13.2285 3.2166 12.937C3.07341 12.6454 2.9993 12.3248 3 12C2.99907 10.7878 3.24301 9.588 3.71719 8.47244C4.19136 7.35688 4.886 6.3486 5.75942 5.5081C6.63285 4.66759 7.66706 4.01219 8.8 3.5812C9.93295 3.15021 11.1413 2.95253 12.3525 3C14.6079 3.11747 16.7398 4.06625 18.3368 5.66322C19.9338 7.26018 20.8825 9.39211 21 11.6475C21.0516 12.8595 20.8554 14.0692 20.4234 15.2028C19.9914 16.3363 19.3327 17.3698 18.4875 18.24V18.2325Z" fill="white"/>
    </g>
    <defs>
        <clipPath id="clip0_2_905">
            <rect width="24" height="24" fill="white"/>
        </clipPath>
    </defs>
</svg>
