<svg width="19" height="24" viewBox="0 0 19 24" fill="none" xmlns="http://www.w3.org/2000/svg">
    <path d="M0.247765 9.06667C0.14895 8.93341 0.0774533 8.78206 0.0373579 8.62128C-0.00273756 8.46049 -0.0106467 8.29341 0.014082 8.12958C0.064024 7.79871 0.243875 7.50115 0.51407 7.30236C0.784266 7.10357 1.12267 7.01984 1.45484 7.06959C1.78702 7.11934 2.08574 7.29848 2.28531 7.56762C2.75333 8.19325 3.11911 8.88864 3.36911 9.62805C3.62902 10.3952 3.76083 11.1996 3.75928 12.0093C3.76015 12.8168 3.62835 13.6191 3.36911 14.3843C3.11911 15.1237 2.75333 15.8191 2.28531 16.4447C2.08574 16.7139 1.78702 16.893 1.45484 16.9428C1.12267 16.9925 0.784266 16.9088 0.51407 16.71C0.243875 16.5112 0.064024 16.2136 0.0140821 15.8828C-0.0358599 15.5519 0.0481985 15.2148 0.247765 14.9457C0.557009 14.5357 0.799452 14.0798 0.96617 13.5947C1.14343 13.0846 1.23549 12.549 1.23867 12.0093C1.2408 11.4726 1.15503 10.9392 0.98475 10.43C0.813501 9.93939 0.564708 9.47915 0.247765 9.06667ZM4.58297 6.71631C5.56874 8.30669 6.08791 10.1402 6.08171 12.0093C6.09015 13.875 5.57536 15.706 4.59535 17.296C4.50792 17.437 4.44922 17.5937 4.42261 17.7573C4.39599 17.9208 4.40197 18.088 4.44021 18.2493C4.47846 18.4105 4.54821 18.5627 4.64549 18.6971C4.74278 18.8315 4.86568 18.9455 5.0072 19.0326C5.14871 19.1197 5.30606 19.1781 5.47026 19.2047C5.63446 19.2312 5.80229 19.2252 5.96418 19.1871C6.12607 19.149 6.27884 19.0795 6.41376 18.9826C6.54869 18.8857 6.66314 18.7633 6.75057 18.6224C7.97855 16.6344 8.62224 14.3433 8.60851 12.0093C8.62307 9.67315 7.97936 7.37983 6.75057 5.38999C6.66314 5.24903 6.54869 5.1266 6.41376 5.0297C6.27884 4.9328 6.12607 4.86331 5.96418 4.82522C5.80229 4.78713 5.63446 4.78117 5.47026 4.80768C5.30606 4.8342 5.14871 4.89267 5.0072 4.97976C4.86568 5.06684 4.74278 5.18084 4.64549 5.31524C4.54821 5.44964 4.47846 5.60182 4.44021 5.76307C4.40197 5.92432 4.39599 6.0915 4.42261 6.25506C4.44922 6.41862 4.50792 6.57535 4.59535 6.71631H4.58297ZM9.19686 4.34127C10.5653 6.67568 11.2856 9.3307 11.284 12.0339C11.2848 14.7351 10.5645 17.3879 9.19686 19.7204C9.11269 19.8634 9.05761 20.0215 9.03477 20.1857C9.01194 20.3499 9.02179 20.5169 9.06377 20.6773C9.10575 20.8377 9.17904 20.9883 9.27945 21.1205C9.37985 21.2527 9.50541 21.3639 9.64896 21.4477C9.79251 21.5316 9.95123 21.5864 10.1161 21.6092C10.2809 21.6319 10.4486 21.6221 10.6096 21.5803C10.7707 21.5385 10.9218 21.4655 11.0545 21.3655C11.1872 21.2654 11.2989 21.1404 11.383 20.9974C12.9819 18.2813 13.8223 15.1887 13.8169 12.0401C13.8275 8.87999 12.9893 5.77458 11.3892 3.0458C11.2168 2.75621 10.9359 2.54672 10.6084 2.46342C10.2808 2.38013 9.93349 2.42984 9.64277 2.60163C9.35204 2.77342 9.14173 3.05322 9.05811 3.37946C8.97449 3.70571 9.0244 4.05168 9.19686 4.34127ZM13.7922 1.93539C15.5523 5.01178 16.4746 8.49302 16.4676 12.0339C16.4738 15.5728 15.5515 19.0518 13.7922 22.1263C13.7108 22.2701 13.6587 22.4284 13.6389 22.5923C13.619 22.7561 13.6317 22.9223 13.6762 23.0813C13.7208 23.2402 13.7964 23.3889 13.8986 23.5188C14.0009 23.6486 14.1278 23.7572 14.2721 23.8382C14.4165 23.9192 14.5755 23.9711 14.74 23.9909C14.9045 24.0107 15.0713 23.9981 15.2308 23.9537C15.3904 23.9093 15.5397 23.834 15.6701 23.7322C15.8004 23.6303 15.9094 23.5039 15.9907 23.3601C17.9673 19.9036 19.0047 15.9933 19.0006 12.0154C19.0098 8.02709 17.9722 4.10564 15.9907 0.639911C15.8265 0.349503 15.5531 0.135983 15.2308 0.0463234C14.9085 -0.0433363 14.5637 -0.00179124 14.2721 0.161819C13.9806 0.325429 13.7662 0.597703 13.6762 0.918742C13.5862 1.23978 13.6279 1.58329 13.7922 1.8737" fill="white"/>
</svg>
