<svg width="24" height="24" viewBox="0 0 24 24" fill="none" xmlns="http://www.w3.org/2000/svg">
    <g clip-path="url(#clip0_2_832)">
        <path d="M19.5 7.00073H17.4287C17.9169 6.27921 18.1062 5.3965 17.9569 4.53825C17.8076 3.68 17.3313 2.9131 16.6281 2.39886C15.9249 1.88461 15.0497 1.66311 14.1866 1.78093C13.3234 1.89875 12.5396 2.34672 12 3.0306C11.4592 2.3501 10.6761 1.90523 9.8146 1.78917C8.95315 1.67311 8.08021 1.89486 7.37858 2.40797C6.67696 2.92108 6.20107 3.68576 6.05059 4.54187C5.9001 5.39797 6.08669 6.2791 6.57127 7.00073H4.5C4.10233 7.00122 3.72109 7.15942 3.43989 7.44061C3.15869 7.72181 3.0005 8.10305 3 8.50073V11.5007C3.0005 11.8984 3.15869 12.2796 3.43989 12.5608C3.72109 12.842 4.10233 13.0002 4.5 13.0007V20.5007C4.5005 20.8984 4.65869 21.2796 4.93989 21.5608C5.22109 21.842 5.60233 22.0002 6 22.0007H18C18.3977 22.0002 18.7789 21.842 19.0601 21.5608C19.3413 21.2796 19.4995 20.8984 19.5 20.5007V13.0007C19.8977 13.0002 20.2789 12.842 20.5601 12.5608C20.8413 12.2796 20.9995 11.8984 21 11.5007V8.50073C20.9995 8.10305 20.8413 7.72181 20.5601 7.44061C20.2789 7.15942 19.8977 7.00122 19.5 7.00073V7.00073ZM12.75 5.12573C12.75 4.75489 12.86 4.39237 13.066 4.08403C13.272 3.77569 13.5649 3.53537 13.9075 3.39345C14.2501 3.25154 14.6271 3.21441 14.9908 3.28675C15.3545 3.3591 15.6886 3.53768 15.9508 3.7999C16.213 4.06212 16.3916 4.39622 16.464 4.75993C16.5363 5.12365 16.4992 5.50065 16.3573 5.84326C16.2154 6.18587 15.975 6.4787 15.6667 6.68473C15.3584 6.89076 14.9958 7.00073 14.625 7.00073H12.75V5.12573ZM9.375 3.25073C9.8721 3.25132 10.3487 3.44906 10.7002 3.80056C11.0517 4.15206 11.2494 4.62863 11.25 5.12573V7.00073H9.375C8.87772 7.00073 8.40081 6.80318 8.04917 6.45155C7.69754 6.09992 7.5 5.62301 7.5 5.12573C7.5 4.62845 7.69754 4.15153 8.04917 3.7999C8.40081 3.44827 8.87772 3.25073 9.375 3.25073V3.25073ZM4.5 8.50073H11.25V11.5007H4.5V8.50073ZM6 13.0007H11.25V20.5007H6V13.0007ZM18.0009 20.5007H12.75V13.0007H18L18.0009 20.5007ZM12.75 11.5007V8.50073H19.5L19.5009 11.5007H12.75Z" fill="white"/>
    </g>
    <defs>
        <clipPath id="clip0_2_832">
            <rect width="24" height="24" fill="white"/>
        </clipPath>
    </defs>
</svg>
