<svg width="24" height="24" viewBox="0 0 24 24" fill="none" xmlns="http://www.w3.org/2000/svg">
    <g clip-path="url(#clip0_2_951)">
        <path d="M18 1.5H6C5.60218 1.5 5.22064 1.65804 4.93934 1.93934C4.65804 2.22064 4.5 2.60218 4.5 3V6C4.5 6.39782 4.65804 6.77936 4.93934 7.06066C5.22064 7.34196 5.60218 7.5 6 7.5V21C6 21.3978 6.15804 21.7794 6.43934 22.0607C6.72064 22.342 7.10218 22.5 7.5 22.5H16.5C16.8978 22.5 17.2794 22.342 17.5607 22.0607C17.842 21.7794 18 21.3978 18 21V7.5C18.3978 7.5 18.7794 7.34196 19.0607 7.06066C19.342 6.77936 19.5 6.39782 19.5 6V3C19.5 2.60218 19.342 2.22064 19.0607 1.93934C18.7794 1.65804 18.3978 1.5 18 1.5ZM7.5 10.5H9.75V18H7.5V10.5ZM16.5 21H7.5V19.5H11.25V9H7.5V7.5H16.5V21ZM6 6V3H18V6H6Z" fill="white"/>
    </g>
    <defs>
        <clipPath id="clip0_2_951">
            <rect width="24" height="24" fill="white"/>
        </clipPath>
    </defs>
</svg>
