<svg width="24" height="24" viewBox="0 0 24 24" fill="none" xmlns="http://www.w3.org/2000/svg">
    <g clip-path="url(#clip0_9_1148)">
        <path d="M1.5 12C1.5 14.0767 2.11581 16.1068 3.26957 17.8335C4.42332 19.5602 6.0632 20.906 7.98182 21.7007C9.90045 22.4955 12.0116 22.7034 14.0484 22.2982C16.0852 21.8931 17.9562 20.8931 19.4246 19.4246C20.8931 17.9562 21.8931 16.0852 22.2982 14.0484C22.7034 12.0116 22.4955 9.90045 21.7007 7.98182C20.906 6.0632 19.5602 4.42332 17.8335 3.26957C16.1068 2.11581 14.0767 1.5 12 1.5C9.21523 1.5 6.54451 2.60625 4.57538 4.57538C2.60625 6.54451 1.5 9.21523 1.5 12ZM6 11.25L15.1125 11.25L10.9275 7.04445L12 6L18 12L12 18L10.9275 16.9296L15.1125 12.75L6 12.75V11.25Z" fill="white"/>
    </g>
    <defs>
        <clipPath id="clip0_9_1148">
            <rect width="24" height="24" fill="white"/>
        </clipPath>
    </defs>
</svg>
