<svg width="20" height="23" viewBox="0 0 20 23" fill="none" xmlns="http://www.w3.org/2000/svg">
    <path d="M19.5303 14.4697L17.5 12.4394V9.75C17.4976 7.89146 16.8061 6.09983 15.5593 4.72154C14.3126 3.34326 12.599 2.47622 10.75 2.2881V0.75H9.25V2.2881C7.40101 2.47622 5.68744 3.34326 4.44065 4.72154C3.19386 6.09983 2.50241 7.89146 2.5 9.75V12.4394L0.469675 14.4697C0.329041 14.6104 0.250023 14.8011 0.25 15V17.25C0.25 17.4489 0.329018 17.6397 0.46967 17.7803C0.610322 17.921 0.801088 18 1 18H6.25V18.5826C6.23374 19.534 6.56913 20.458 7.19191 21.1775C7.81469 21.897 8.68106 22.3613 9.625 22.4816C10.1464 22.5334 10.6728 22.4754 11.1704 22.3115C11.668 22.1475 12.1258 21.8813 12.5143 21.5298C12.9029 21.1783 13.2135 20.7494 13.4263 20.2707C13.6391 19.7919 13.7494 19.2739 13.75 18.75V18H19C19.1989 18 19.3897 17.921 19.5303 17.7803C19.671 17.6397 19.75 17.4489 19.75 17.25V15C19.75 14.8011 19.671 14.6104 19.5303 14.4697ZM12.25 18.75C12.25 19.3467 12.0129 19.919 11.591 20.341C11.169 20.7629 10.5967 21 10 21C9.40326 21 8.83097 20.7629 8.40901 20.341C7.98705 19.919 7.75 19.3467 7.75 18.75V18H12.25V18.75ZM18.25 16.5H1.75V15.3106L3.78025 13.2802C3.92091 13.1396 3.99996 12.9489 4 12.75V9.75C4 8.1587 4.63214 6.63258 5.75736 5.50736C6.88258 4.38214 8.4087 3.75 10 3.75C11.5913 3.75 13.1174 4.38214 14.2426 5.50736C15.3679 6.63258 16 8.1587 16 9.75V12.75C16 12.9489 16.0791 13.1396 16.2197 13.2802L18.25 15.3106V16.5Z" fill="white"/>
</svg>
