<svg width="24" height="24" viewBox="0 0 24 24" fill="none" xmlns="http://www.w3.org/2000/svg">
    <g clip-path="url(#clip0_2_835)">
        <path d="M6.75 10.5C6.00832 10.5 5.2833 10.2801 4.66661 9.86801C4.04993 9.45596 3.56928 8.87029 3.28545 8.18506C3.00162 7.49984 2.92736 6.74584 3.07206 6.01841C3.21675 5.29098 3.5739 4.6228 4.09835 4.09835C4.6228 3.5739 5.29098 3.21675 6.01841 3.07206C6.74584 2.92736 7.49984 3.00162 8.18506 3.28545C8.87029 3.56928 9.45596 4.04993 9.86801 4.66661C10.2801 5.2833 10.5 6.00832 10.5 6.75C10.4989 7.74423 10.1035 8.69742 9.40045 9.40045C8.69742 10.1035 7.74423 10.4989 6.75 10.5ZM6.75 4.5C6.30499 4.5 5.86998 4.63196 5.49997 4.8792C5.12996 5.12643 4.84157 5.47783 4.67127 5.88896C4.50098 6.3001 4.45642 6.7525 4.54324 7.18896C4.63005 7.62541 4.84434 8.02632 5.15901 8.34099C5.47368 8.65566 5.87459 8.86995 6.31105 8.95677C6.74751 9.04359 7.19991 8.99903 7.61104 8.82873C8.02217 8.65843 8.37358 8.37005 8.62081 8.00004C8.86804 7.63002 9 7.19501 9 6.75C8.99935 6.15347 8.76208 5.58155 8.34027 5.15973C7.91845 4.73792 7.34654 4.50066 6.75 4.5Z" fill="white"/>
        <path d="M19.9394 3.00002L3 19.9395L4.06055 21L21 4.06058L19.9394 3.00002Z" fill="white"/>
        <path d="M17.25 21C16.5083 21 15.7833 20.7801 15.1666 20.368C14.5499 19.956 14.0693 19.3703 13.7855 18.6851C13.5016 17.9998 13.4274 17.2458 13.5721 16.5184C13.7168 15.791 14.0739 15.1228 14.5984 14.5984C15.1228 14.0739 15.791 13.7168 16.5184 13.5721C17.2458 13.4274 17.9998 13.5016 18.6851 13.7855C19.3703 14.0693 19.956 14.5499 20.368 15.1666C20.7801 15.7833 21 16.5083 21 17.25C20.9989 18.2442 20.6035 19.1974 19.9004 19.9004C19.1974 20.6035 18.2442 20.9989 17.25 21ZM17.25 15C16.805 15 16.37 15.132 16 15.3792C15.63 15.6264 15.3416 15.9778 15.1713 16.389C15.001 16.8001 14.9564 17.2525 15.0432 17.689C15.1301 18.1254 15.3443 18.5263 15.659 18.841C15.9737 19.1557 16.3746 19.37 16.811 19.4568C17.2475 19.5436 17.6999 19.499 18.111 19.3287C18.5222 19.1584 18.8736 18.87 19.1208 18.5C19.368 18.13 19.5 17.695 19.5 17.25C19.4993 16.6535 19.2621 16.0816 18.8403 15.6597C18.4185 15.2379 17.8465 15.0007 17.25 15Z" fill="white"/>
    </g>
    <defs>
        <clipPath id="clip0_2_835">
            <rect width="24" height="24" fill="white"/>
        </clipPath>
    </defs>
</svg>
