<svg width="24" height="24" viewBox="0 0 24 24" fill="none" xmlns="http://www.w3.org/2000/svg">
    <g clip-path="url(#clip0_2_946)">
        <path d="M22.5 8.25037V2.25037C22.5 2.05146 22.421 1.8607 22.2803 1.72004C22.1397 1.57939 21.9489 1.50037 21.75 1.50037H14.25C14.0511 1.50037 13.8603 1.57939 13.7197 1.72004C13.579 1.8607 13.5 2.05146 13.5 2.25037V8.25037C13.5017 9.31281 13.8791 10.3404 14.5653 11.1515C15.2516 11.9626 16.2025 12.5049 17.25 12.6825V21H14.25V22.5H21.75V21H18.75V12.6825C19.7975 12.5049 20.7484 11.9626 21.4347 11.1515C22.1209 10.3404 22.4983 9.31281 22.5 8.25037ZM15 8.25037V3H21V8.25037C21 9.04602 20.6839 9.80909 20.1213 10.3717C19.5587 10.9343 18.7956 11.2504 18 11.2504C17.2044 11.2504 16.4413 10.9343 15.8787 10.3717C15.3161 9.80909 15 9.04602 15 8.25037Z" fill="white"/>
        <path d="M9 1.5V8.265C8.99913 9.05243 8.68594 9.80735 8.12914 10.3641C7.57235 10.9209 6.81742 11.2341 6.03 11.235C5.23465 11.242 4.469 10.9332 3.90098 10.3764C3.33296 9.81966 3.00895 9.06034 3 8.265V1.5H1.5V8.265C1.50731 9.32233 1.88741 10.3432 2.57336 11.1478C3.25932 11.9525 4.20715 12.4893 5.25 12.6639V22.5H6.75V12.6715C7.79569 12.5001 8.74659 11.9631 9.43334 11.1562C10.1201 10.3492 10.4981 9.32463 10.5 8.265V1.5H9Z" fill="white"/>
        <path d="M6.75 1.5H5.25V8.985H6.75V1.5Z" fill="white"/>
    </g>
    <defs>
        <clipPath id="clip0_2_946">
            <rect width="24" height="24" fill="white"/>
        </clipPath>
    </defs>
</svg>
