<svg width="24" height="24" viewBox="0 0 24 24" fill="none" xmlns="http://www.w3.org/2000/svg">
    <g clip-path="url(#clip0_2_932)">
        <path d="M22.1365 21.076L16.4725 15.4119C17.8335 13.7779 18.5122 11.6821 18.3673 9.56047C18.2225 7.43883 17.2653 5.45471 15.6948 4.02086C14.1244 2.587 12.0616 1.81381 9.93554 1.86212C7.80951 1.91043 5.78396 2.77653 4.28024 4.28024C2.77653 5.78396 1.91043 7.80951 1.86212 9.93554C1.81381 12.0616 2.587 14.1244 4.02086 15.6948C5.45471 17.2653 7.43883 18.2225 9.56047 18.3673C11.6821 18.5122 13.7779 17.8335 15.4119 16.4725L21.076 22.1365L22.1365 21.076ZM3.38653 10.1365C3.38653 8.80151 3.78241 7.49646 4.52411 6.38643C5.26581 5.2764 6.32002 4.41123 7.55342 3.90034C8.78682 3.38945 10.144 3.25578 11.4534 3.51623C12.7628 3.77668 13.9655 4.41955 14.9095 5.36356C15.8535 6.30756 16.4964 7.5103 16.7568 8.81967C17.0173 10.129 16.8836 11.4862 16.3727 12.7196C15.8618 13.953 14.9967 15.0073 13.8866 15.749C12.7766 16.4906 11.4716 16.8865 10.1365 16.8865C8.34693 16.8845 6.63119 16.1727 5.36575 14.9073C4.10031 13.6419 3.38852 11.9261 3.38653 10.1365Z" fill="white"/>
    </g>
    <defs>
        <clipPath id="clip0_2_932">
            <rect width="24" height="24" fill="white"/>
        </clipPath>
    </defs>
</svg>
