<svg width="24" height="24" viewBox="0 0 24 24" fill="none" xmlns="http://www.w3.org/2000/svg">
    <g clip-path="url(#clip0_2_848)">
        <path d="M10.5 12.9425L8.5575 11L7.5 12.0575L10.5 15.0575L16.5 9.0575L15.4425 8L10.5 12.9425Z" fill="white"/>
        <path d="M12 23L7.36815 20.5303C6.0476 19.8278 4.94328 18.779 4.17372 17.4964C3.40415 16.2138 2.9984 14.7458 3 13.25V3.5C3.00042 3.1023 3.15859 2.72101 3.43981 2.4398C3.72102 2.15859 4.10231 2.00042 4.5 2H19.5C19.8977 2.00042 20.279 2.15859 20.5602 2.4398C20.8414 2.72101 20.9996 3.1023 21 3.5V13.25C21.0016 14.7458 20.5959 16.2138 19.8263 17.4964C19.0567 18.779 17.9524 19.8278 16.6319 20.5303L12 23ZM4.5 3.5V13.25C4.49871 14.4739 4.83072 15.675 5.46041 16.7244C6.0901 17.7738 6.9937 18.632 8.0742 19.2067L12 21.3L15.9258 19.2067C17.0063 18.632 17.9099 17.7738 18.5396 16.7244C19.1693 15.675 19.5013 14.4739 19.5 13.25V3.5H4.5Z" fill="white"/>
    </g>
    <defs>
        <clipPath id="clip0_2_848">
            <rect width="24" height="24" fill="white"/>
        </clipPath>
    </defs>
</svg>
