<svg width="24" height="24" viewBox="0 0 24 24" fill="none" xmlns="http://www.w3.org/2000/svg">
    <g clip-path="url(#clip0_2_962)">
        <path d="M20.2815 3.21843C20.1803 3.11768 20.0524 3.04793 19.9129 3.01737C19.7734 2.98681 19.6281 2.99672 19.494 3.04593L2.99402 9.04593C2.85173 9.0999 2.72921 9.19589 2.64276 9.32114C2.55631 9.44639 2.51001 9.59498 2.51001 9.74718C2.51001 9.89937 2.55631 10.048 2.64276 10.1732C2.72921 10.2985 2.85173 10.3945 2.99402 10.4484L9.43652 13.0209L14.1915 8.25093L15.249 9.30843L10.4715 14.0859L13.0515 20.5284C13.1071 20.668 13.2033 20.7876 13.3277 20.8719C13.452 20.9561 13.5988 21.0011 13.749 21.0009C13.9006 20.9978 14.0477 20.9489 14.1708 20.8605C14.294 20.7721 14.3875 20.6485 14.439 20.5059L20.439 4.00593C20.4901 3.87323 20.5024 3.72875 20.4746 3.58932C20.4467 3.44989 20.3797 3.32126 20.2815 3.21843Z" fill="white"/>
    </g>
    <defs>
        <clipPath id="clip0_2_962">
            <rect width="24" height="24" fill="white"/>
        </clipPath>
    </defs>
</svg>
