<svg width="24" height="24" viewBox="0 0 24 24" fill="none" xmlns="http://www.w3.org/2000/svg">
    <g clip-path="url(#clip0_2_902)">
        <path d="M16.0611 9H21V7.5H17.5611L21.0004 4.06095L19.9398 3L16.5 6.44017V3H15V7.94017L13.94 9H12.75V6H11.25V9H10.06L9 7.94017V3H7.5V6.44017L4.0602 3L3 4.06095L6.4389 7.5H3V9H7.9389L9 10.0612V11.25H6V12.75H9V13.9402L7.94002 15H3V16.5H6.44003L3 19.9398L4.06058 21.0004L7.5 17.5612V21H9V16.0612L10.0611 15H11.25V18H12.75V15H13.9389L15 16.0612V21H16.5V17.5612L19.939 21.0004L21 19.9398L17.56 16.5H21V15H16.06L15 13.9402V12.75H18V11.25H15V10.0612L16.0611 9ZM13.5 13.5H10.5V10.5H13.5V13.5Z" fill="white"/>
    </g>
    <defs>
        <clipPath id="clip0_2_902">
            <rect width="24" height="24" fill="white"/>
        </clipPath>
    </defs>
</svg>
