<svg width="24" height="24" viewBox="0 0 24 24" fill="none" xmlns="http://www.w3.org/2000/svg">
    <g clip-path="url(#clip0_2_895)">
        <path d="M21 19.5H18.75V18H21V6H18.75V4.5H21C21.3977 4.50046 21.779 4.65864 22.0602 4.93984C22.3414 5.22105 22.4995 5.60232 22.5 6V18C22.4995 18.3977 22.3413 18.7789 22.0601 19.0601C21.7789 19.3413 21.3977 19.4995 21 19.5Z" fill="white"/>
        <path d="M17.25 13.5C18.0784 13.5 18.75 12.8284 18.75 12C18.75 11.1716 18.0784 10.5 17.25 10.5C16.4216 10.5 15.75 11.1716 15.75 12C15.75 12.8284 16.4216 13.5 17.25 13.5Z" fill="white"/>
        <path d="M12 13.5C12.8284 13.5 13.5 12.8284 13.5 12C13.5 11.1716 12.8284 10.5 12 10.5C11.1716 10.5 10.5 11.1716 10.5 12C10.5 12.8284 11.1716 13.5 12 13.5Z" fill="white"/>
        <path d="M6.75 13.5C7.57843 13.5 8.25 12.8284 8.25 12C8.25 11.1716 7.57843 10.5 6.75 10.5C5.92157 10.5 5.25 11.1716 5.25 12C5.25 12.8284 5.92157 13.5 6.75 13.5Z" fill="white"/>
        <path d="M5.25 19.5H3C2.60232 19.4995 2.22105 19.3414 1.93984 19.0602C1.65864 18.779 1.50046 18.3977 1.5 18V6C1.5004 5.6023 1.65856 5.221 1.93978 4.93978C2.221 4.65856 2.6023 4.5004 3 4.5H5.25V6H3V18H5.25V19.5Z" fill="white"/>
    </g>
    <defs>
        <clipPath id="clip0_2_895">
            <rect width="24" height="24" fill="white"/>
        </clipPath>
    </defs>
</svg>
