<svg width="20" height="20" viewBox="0 0 20 20" fill="none" xmlns="http://www.w3.org/2000/svg">
    <g clip-path="url(#clip0_2_975)">
        <path d="M18.125 9.375H16.875C16.875 7.55164 16.1507 5.80295 14.8614 4.51364C13.572 3.22433 11.8234 2.5 10 2.5C8.17664 2.5 6.42795 3.22433 5.13864 4.51364C3.84933 5.80295 3.125 7.55164 3.125 9.375H1.875C1.875 7.22012 2.73102 5.15349 4.25476 3.62976C5.77849 2.10602 7.84512 1.25 10 1.25C12.1549 1.25 14.2215 2.10602 15.7452 3.62976C17.269 5.15349 18.125 7.22012 18.125 9.375Z" fill="white"/>
        <path d="M15.625 17.5H14.375V9.375C14.375 8.21468 13.9141 7.10188 13.0936 6.28141C12.2731 5.46094 11.1603 5 10 5C8.83968 5 7.72688 5.46094 6.90641 6.28141C6.08594 7.10188 5.625 8.21468 5.625 9.375V17.5H4.375V9.375C4.375 7.88316 4.96763 6.45242 6.02252 5.39752C7.07742 4.34263 8.50816 3.75 10 3.75C11.4918 3.75 12.9226 4.34263 13.9775 5.39752C15.0324 6.45242 15.625 7.88316 15.625 9.375V17.5Z" fill="white"/>
        <path d="M13.125 12.5H6.875V9.375C6.875 8.5462 7.20424 7.75134 7.79029 7.16529C8.37634 6.57924 9.1712 6.25 10 6.25C10.8288 6.25 11.6237 6.57924 12.2097 7.16529C12.7958 7.75134 13.125 8.5462 13.125 9.375V12.5ZM8.125 11.25H11.875V9.375C11.875 8.87772 11.6775 8.40081 11.3258 8.04917C10.9742 7.69754 10.4973 7.5 10 7.5C9.50272 7.5 9.02581 7.69754 8.67417 8.04917C8.32254 8.40081 8.125 8.87772 8.125 9.375V11.25Z" fill="white"/>
    </g>
    <defs>
        <clipPath id="clip0_2_975">
            <rect width="20" height="20" fill="white"/>
        </clipPath>
    </defs>
</svg>
