<svg width="48" height="48" viewBox="0 0 48 48" fill="none" xmlns="http://www.w3.org/2000/svg">
    <g clip-path="url(#clip0_15_2011)">
        <path d="M25.9561 47.04C25.6786 47.04 25.4431 46.8285 25.4191 46.548C25.2586 44.757 24.1036 42.8295 21.9466 42.8295C19.9666 42.8295 18.8146 43.944 17.5996 45.744C17.4346 45.993 17.0986 46.056 16.8496 45.891C16.6021 45.7245 16.5376 45.387 16.7041 45.141C17.8936 43.3785 19.3516 41.748 21.9466 41.748C24.7816 41.748 26.2906 44.187 26.4946 46.452C26.5216 46.749 26.3026 47.0115 26.0056 47.0385C25.9876 47.0385 25.9711 47.04 25.9561 47.04ZM31.8421 45.624C31.7461 45.624 31.6486 45.597 31.5601 45.543C28.6786 43.779 26.8891 40.9425 26.8891 38.1375C26.8891 37.1115 27.0961 35.9805 27.4396 35.112C27.5506 34.8345 27.8611 34.7025 28.1416 34.809C28.4191 34.92 28.5541 35.2335 28.4446 35.511C28.0951 36.393 27.9706 37.446 27.9706 38.1375C27.9706 40.5675 29.5636 43.0515 32.1271 44.622C32.3806 44.778 32.4616 45.1095 32.3041 45.3645C32.2006 45.531 32.0236 45.624 31.8421 45.624ZM12.7726 44.0535C12.5971 44.0535 12.4261 43.968 12.3226 43.812C12.1576 43.563 12.2251 43.227 12.4741 43.0635C16.7101 40.254 20.1346 37.5315 23.5801 34.2375C25.3906 32.505 28.4251 29.031 28.4251 25.224C28.4251 22.869 26.7526 20.4345 23.9536 20.4345C21.3736 20.4345 19.4326 23.349 17.5561 26.169C16.5676 27.6525 15.6346 29.055 14.5996 30.066C11.7676 32.835 8.83356 34.482 5.56806 36.201C5.30256 36.3405 4.97706 36.237 4.83906 35.976C4.69956 35.7105 4.80156 35.385 5.06556 35.247C8.25456 33.5685 11.1166 31.9635 13.8451 29.2935C14.7976 28.3635 15.7006 27.0075 16.6561 25.572C18.6901 22.5165 20.7946 19.3575 23.9536 19.3575C27.4291 19.3575 29.5066 22.3425 29.5066 25.227C29.5066 29.436 26.2606 33.1695 24.3271 35.0205C20.8336 38.3625 17.3626 41.121 13.0711 43.9665C12.9781 44.025 12.8746 44.0535 12.7726 44.0535ZM37.7596 42.33C37.6936 42.33 37.6261 42.3165 37.5616 42.2925C32.6371 40.3575 31.6021 36.3735 31.6021 33.3735C31.6021 32.0745 31.8586 30.8535 32.1301 29.562C32.4496 28.032 32.7811 26.4525 32.7811 24.4455C32.7811 20.841 29.7136 15.849 23.9536 15.849C19.1026 15.849 16.1701 19.5825 14.8546 21.8085C13.5916 23.946 10.0711 29.1345 4.68756 31.125C4.40556 31.224 4.09656 31.086 3.99306 30.8055C3.88956 30.525 4.03206 30.2145 4.31256 30.111C7.82256 28.8135 11.4151 25.5045 13.9246 21.258C15.3586 18.834 18.5656 14.769 23.9536 14.769C29.8801 14.769 33.8611 19.7715 33.8611 24.4455C33.8611 26.5635 33.5026 28.2735 33.1861 29.7825C32.9281 31.017 32.6836 32.1855 32.6836 33.3735C32.6836 36.0375 33.5971 39.5745 37.9576 41.2875C38.2351 41.3955 38.3716 41.709 38.2621 41.988C38.1781 42.1995 37.9741 42.33 37.7596 42.33ZM8.73456 41.079C8.55306 41.079 8.37606 40.986 8.27406 40.821C8.11806 40.5675 8.19756 40.2345 8.45106 40.0785C13.3561 37.059 19.9501 32.058 23.5066 25.38C23.6461 25.116 23.9716 25.0155 24.2371 25.158C24.4996 25.299 24.6001 25.626 24.4591 25.8885C20.7871 32.781 14.0341 37.911 9.01506 40.9995C8.92956 41.052 8.83206 41.079 8.73456 41.079ZM40.5976 38.679C40.5256 38.679 40.4521 38.664 40.3816 38.634C37.0246 37.173 36.3661 35.0925 36.3661 31.9875C36.3661 30.051 36.5896 29.079 36.8266 28.047C37.0801 26.946 37.3411 25.8075 37.3411 23.2455C37.3411 17.496 32.2231 11.2905 23.9521 11.2905C17.7046 11.2905 14.6836 14.4075 12.1231 17.5995C11.8411 17.9505 11.5336 18.36 11.2006 18.804C9.61056 20.922 7.43406 23.8215 4.70106 24.9285C4.42206 25.041 4.10856 24.9075 3.99756 24.6315C3.88506 24.354 4.01856 24.0405 4.29456 23.928C6.75006 22.932 8.82306 20.172 10.3366 18.156C10.6786 17.7015 10.9921 17.2815 11.2801 16.9245C14.0041 13.527 17.2261 10.2105 23.9506 10.2105C32.8876 10.2105 38.4196 16.977 38.4196 23.2455C38.4196 25.929 38.1316 27.183 37.8781 28.2885C37.6561 29.2575 37.4461 30.174 37.4461 31.9875C37.4461 35.16 38.2636 36.5355 40.8106 37.644C41.0851 37.7625 41.2096 38.0805 41.0911 38.355C41.0056 38.5575 40.8061 38.679 40.5976 38.679ZM41.2141 34.1745C41.1031 34.1745 40.9921 34.1415 40.8946 34.071C40.6546 33.894 40.6021 33.5565 40.7776 33.315C42.1231 31.473 42.9601 28.266 42.9601 24.942C42.9601 23.13 42.8146 21.1455 41.7586 18.894C41.6326 18.624 41.7481 18.3015 42.0181 18.1755C42.2881 18.051 42.6106 18.1635 42.7366 18.435C43.8856 20.8845 44.0401 23.0985 44.0401 24.942C44.0401 28.536 43.1461 31.9065 41.6491 33.954C41.5426 34.0965 41.3791 34.1745 41.2141 34.1745ZM5.59656 17.9865C5.49456 17.9865 5.39106 17.958 5.29956 17.898C5.05056 17.7345 4.98156 17.3985 5.14506 17.1495C8.39106 12.222 13.8721 5.67149 23.9521 5.67149C30.9451 5.67149 37.4206 9.16199 41.2726 15.0105C41.4361 15.261 41.3671 15.5955 41.1181 15.759C40.8706 15.9225 40.5346 15.855 40.3696 15.6045C36.7186 10.0605 30.5821 6.75149 23.9521 6.75149C14.3941 6.75149 9.15606 13.026 6.04656 17.745C5.94456 17.9025 5.77206 17.9865 5.59656 17.9865ZM40.1596 8.89199C40.0186 8.89199 39.8791 8.83799 39.7741 8.72999C35.6296 4.49699 29.9521 2.05949 24.1966 2.03999C24.1681 2.03999 24.1396 2.03999 24.1111 2.03999C17.9791 2.03999 12.5041 4.32599 8.27406 8.65499C8.06706 8.86799 7.72356 8.87099 7.51206 8.66399C7.29756 8.45549 7.29456 8.11349 7.50306 7.90049C11.9401 3.35849 17.6836 0.959991 24.1111 0.959991C24.1411 0.959991 24.1711 0.959991 24.2011 0.959991C30.2431 0.980991 36.2026 3.53699 40.5451 7.97399C40.7551 8.18699 40.7506 8.52899 40.5376 8.73749C40.4326 8.84099 40.2961 8.89199 40.1596 8.89199Z" fill="white"/>
    </g>
    <defs>
        <clipPath id="clip0_15_2011">
            <rect width="48" height="48" fill="white"/>
        </clipPath>
    </defs>
</svg>
